
<svg xmlns="http://www.w3.org/2000/svg" viewBox="0 0 120 140" fill="none">
  <defs>
    <linearGradient id="goldGrad" x1="0" y1="0" x2="0" y2="1">
      <stop offset="0" stop-color="#F5E6B8"></stop>
      <stop offset="0.5" stop-color="#C79A3A"></stop>
      <stop offset="1" stop-color="#7E5C18"></stop>
    </linearGradient>
    <radialGradient id="innerGlow" cx="0.5" cy="0.35" r="0.6">
      <stop offset="0" stop-color="#F5E6B8" stop-opacity="0.5"></stop>
      <stop offset="1" stop-color="#1E2E4F" stop-opacity="0"></stop>
    </radialGradient>
  </defs>
  
  <path d="M60 4 L112 14 L112 60 Q112 104 60 132 Q8 104 8 60 L8 14 Z" fill="url(#goldGrad)" stroke="#7E5C18" stroke-width="1.5"></path>
  
  <path d="M60 14 L102 22 L102 58 Q102 94 60 118 Q18 94 18 58 L18 22 Z" fill="#1E2E4F"></path>
  <path d="M60 14 L102 22 L102 58 Q102 94 60 118 Q18 94 18 58 L18 22 Z" fill="url(#innerGlow)"></path>
  
  <g stroke="#C79A3A" stroke-width="3" stroke-linecap="round" fill="none">
    <line x1="60" y1="40" x2="60" y2="86"></line>
    <line x1="40" y1="60" x2="80" y2="60"></line>
    
    <circle cx="60" cy="40" r="3.5" fill="#F5E6B8" stroke="none"></circle>
    <circle cx="60" cy="86" r="3.5" fill="#F5E6B8" stroke="none"></circle>
    <circle cx="40" cy="60" r="3" fill="#F5E6B8" stroke="none"></circle>
    <circle cx="80" cy="60" r="3" fill="#F5E6B8" stroke="none"></circle>
  </g>
  
  <g transform="translate(0, 96)">
    <path d="M18 0 L102 0 L96 16 L24 16 Z" fill="#94382F"></path>
    <path d="M18 0 L14 8 L18 6 Z M102 0 L106 8 L102 6 Z" fill="#6B241C"></path>
  </g>
</svg>